<?xml version="1.0" encoding="UTF-8"?>
<svg version="1.1" viewBox="0 0 1280 1280" width="1280" height="1280" xmlns="http://www.w3.org/2000/svg">
<path transform="translate(0)" d="m0 0h1280v1280h-1280z"/>
<path transform="translate(518,526)" d="m0 0h47l29 2 18 4 27 12 12 6 7 8v11l-4 5-4 1 1 15v101l-2 7-5 6-8 17-11 12-11 8-8 4h-20l-9 12-4 7h8l5 2h8l17-9 5-2v-2l27-15 24-13 7-4 16-7 54-28 23-11 26-13 29-13 9-1 2 4v5l-9 8-29 14-22 12-14 8-23 12-18 10-28 14-23 13-26 14-22 12-19 10-46 26-14 8-17 9-16 8-21 12-25 13-18 11-16 8-21 11-20 12-26 14-25 15-20 10-18 10-13 8-29 15-16 8-7 3h-8l-2-2v-10l6-5 6-3 1-3-6-2-10-4-16-6-23-9-24-8-13-3-5-4v-9l6-5 58-29 20-8 12-8-2-4-12-11-10-13 1-7 8-17 5-14v-4l-22-3-3-3v-9l10-19 12-26 4-9h2l2-6 11-23 1-3v-37l1-9 3-8 8-17 8-10 4-3h2v-2l13-8 10-5 5-2h3v-37l-4-2-3-6v-10l2-3 20-1h53l4 2 2 3v10l-3 5-2 6-1 23 16-2h12v-16l3-6h2l1-4 8-6 7-3h20l10 4 9 8 3 6 2 7 11 1-1-14-2-3 1-7 8-6 19-10 20-7z" fill="#EBECEC"/>
<path transform="translate(609,330)" d="m0 0h17l13 4 10 7 3 3v2l6-3 10-6 6-2h26l15 4 38-3 16-1h32l3 4v7h-2v2l-9 3-40 2-25 3-10 2h-8l-7-5-6-2h-15l-10 3-6 4-6 6-3 1h-10l-8-10-10-6-2-1h-14l-9 3-2 1v17l-1 2-3 1h-11l-7-11-7-6-9-4-5-1h-20l-12 5-7 7-4 6-4 10-7 4-5-1-7-7-5-6-12-6-9-2h-19l-11 4-8 7-5 6-2 7-1 14-5 3-9 1-9-9-4-2h-18l-13 4-10 9-2 6v14l-1 3-16 2-10 4-5 4-5 10-1 8 9 1 2 2v5h-2v2l-13 8-4 6v10l4 8 5 4 6 3 5 1h16l13-4 9-6 4-6 1-4v-12l-1-8 4-2 22-1 8-3h3v-2l4-3 1-10 2-1h7l5 5 3 5 5 3 4 1h14l16-5 11-7 7-7 6-5h5l9 10 5 7 11 4h16l14-3 9-5h2l2-4 4-6h2l1-5h2l1-6 1-8 4-4 4-1 7 3 7 8 5 5 9 4h16l12-3 12-6 11-9 9-12 6-5h10l5 2 6 1h13l16-3 11-6 6-10 3-1 22-1 13-3h7l3 3 1 5-3 5-5 4-11 5-7 1-1 1-13 1-6 5-12 6-15 4-5 1h-21l-12-6-1 4-7 9-6 8h-2l-1 3-13 8-12 5-8 2h-22l-10-3-9-6-4-2h-2l-2 6-6 8-10 8-11 7-11 4-8 1h-18l-9-2-10-5v-2l-4-2-5-4h-2l-4 5-13 8-15 5h-21l-9-2-6-4-5 1-10 6-8 4h-9l-1 8-7 12-9 10-11 7-9 4-4 1h-22l-15-4-6-4v-2l-5-2-6-9-4-10v-14l3-10 6-9v-13l3-10 6-10 8-8 8-5 5-2h5l3-9 6-10 11-12 11-6 4-1h30l8 1 6-11 9-10 8-6 16-5h26l17 4 10 5 7 4 1-4 7-7 14-8 10-3h23l12 3 10 5h6l3-3 12-6z" fill="#EBECEC"/>
<path transform="translate(1109,425)" d="m0 0h7l4 3v6l-4 5-8 4-24 8-26 8-36 13-40 14-30 11-50 17-45 17-64 23-53 18-30 11-39 14-7 1-2-7v-8l3-4h2l3-18 15-4 31-9 36-12 50-16 47-14 26-7 40-13 49-15 35-12 35-10 39-12z" fill="#6D6C6C"/>
<path transform="translate(1077,504)" d="m0 0h7l4 3v6l-8 7-22 10-23 11-30 14-24 10-29 13-28 13-23 11-27 11-21 9-19 9-23 10-18 9-3-1-2-5-4-2-5-3h-5l-1 19-16 8-19 8-34 17-25 11-16 8h-2l2-37 2-5 27-9 27-11 24-10 24-9 25-11 31-11 23-10 28-11 16-7 28-11 19-8 20-7 36-15 28-12 26-11 22-9z" fill="#B8B8B8"/>
<path transform="translate(1040,483)" d="m0 0h8l3 4v6l-4 5-14 7-23 8-99 41-31 11-22 10-32 13-11 5-29 11-25 10-17 6-45 19-24 10-8 4h-4v-38l35-10 64-23 19-8 75-25 37-14 31-11 43-15 36-12z" fill="#6D6C6C"/>
<path transform="translate(738,743)" d="m0 0 4 1 4 6 5 13 4 10 3 8v3h42l1 1v5l-9 10-10 9-8 7-3 5 8 31 1 7-2 2-7-1-13-8-11-7-5-4-6 1-9 6-20 12-7 1v-9l9-28-1-5-17-16-10-9-2-3v-5l1-1h41l1-5 13-34z" fill="#EBECEC"/>
<path transform="translate(301,627)" d="m0 0h19l15 8 6 5 6 9 4 11v21l-5 15-7 9-7 6-13 4h-17l-10-5-12-11-6-9-3-8v-18l3-11 9-14 8-7z" fill="#EBECEC"/>
<path transform="translate(1077,504)" d="m0 0h7l4 3v6l-8 7-22 10-23 11-30 14-24 10-29 13-28 13-23 11-27 11-21 9-19 9-23 10-3 1v-4l22-12 16-8 5-3 5-5 9-6h2l-1-2-3-1h-11l-8 3-13 4-16 6-5 1h-7l3-2 19-7 29-12 22-9 19-8 28-11 17-7 22-8 104-44z" fill="#6D6C6C"/>
<path transform="translate(831,563)" d="m0 0h8l-1 6-8 7-3 5-11 4-14 8-7 3-18 8h-2l-1 5-19 7-16 6-42 18-22 9-8 4h-4v-38l35-10 39-14 16-3 17-7 18-6h3v-2l17-3z" fill="#9D9D9D"/>
<path transform="translate(301,612)" d="m0 0h18l12 3 11 6 6 5 8 10 6 12 4 16v17l-4 16-6 12-9 10-15 8-4 2-7 1h-18l-12-4-11-6-12-12-5-8-5-14-2-7v-15l3-16 8-15 8-9 11-7 10-4zm0 15-10 5-9 8-8 13-3 11v18l4 10 8 10 9 8 10 5h17l13-4 10-9 5-9 4-12v-21l-5-13-7-9-11-7-8-4z" fill="#040404"/>
<path transform="translate(824,518)" d="m0 0h8v6l4 2v5l-30 12-8 4h-5l-1 3-13 3-19 8-16 6-19 8-3 1-1 3-50 18-7 1-2-7v-8l3-4h2l3-18 15-4 31-9 18-6h13l9-4 8-3 10-2 6-1v-2l7-1 8-3 13-3 9-3z" fill="#9E9E9E"/>
<path transform="translate(458,589)" d="m0 0h6l10 6 3 3 5 4 10 14 5 15 1 5v12l-3 2-23 4-24 6h-8l-1-10-7-21-6-11-3-4v-2l-4-2-7-8-5-4v-4l47-4z" fill="#020202"/>
<path transform="translate(575,650)" d="m0 0 4 1 1 3v9l-8 3-24 6-42 12-34 10-49 14-17 4-3 8-5 14-5 12-6 15-12 26-5 2h-10l-1-5 9-19 6-15 9-20 10-21 5-10 23-7 65-18 29-8 29-7 26-8z" fill="#030303"/>
<path transform="translate(712,491)" d="m0 0h9l10 6 4 4 4 10 1 5-1 4-13 6-21 7-31 8h-6l-14-7-23-8-21-8v-3l58-13 35-9z" fill="#B7B7B7"/>
<path transform="translate(858,683)" d="m0 0h4l4 9 5 13v4h30v5l-10 9-8 7-3 1 2 14 3 11v6l-3 1-16-10-5-2-6 1-13 8-5 3h-5v-8l5-17-1-6-8-8-9-7-2-3v-4l3-1h28l1-7 7-16z" fill="#EBECEC"/>
<path transform="translate(521,582)" d="m0 0h15l9 4 9 8 8 14 6 14v7l-7 3-43 10h-5l-2-9-4-17-7-14-1-4-4-2-8-8 1-2 21-3z" fill="#010000"/>
<path transform="translate(379,601)" d="m0 0 7 1 10 5 13 12 8 13 5 17 1 8v10l-7 2-18 4-12 3-5-1-2-21-4-15-7-13-8-10-11-6-1-3 5-2z" fill="#010101"/>
<path transform="translate(432,829)" d="m0 0 8 2 17 6v4l-23 13-24 13-16 10-4 2-10 2-3 3h-9l-17-4-23-8v-4l21-6 19-6 16-8 14-8z" fill="#020202"/>
<path transform="translate(852,600)" d="m0 0h11l4 2v2l-14 9-5 5-16 8-23 12-2 5-14 7-3-1-2-5-4-2-5-3h-5l-1 19-16 8-19 8-34 17-15 6 1-5 26-13h2v-2l17-9 15-5 11-6 1-1 1-10 2-3h2l2-4 4-2v-3l-7 1-10 4-9 3-9 1-1 3-16 6-6 1v2l-5 2-7 3-11 2h-5l2-2 28-11 26-11 24-9 25-11 8-3 15-2 16-6 13-4z" fill="#9C9C9C"/>
<path transform="translate(210,899)" d="m0 0 10 2 8 3 22 8 14 4 10 4 12 4 8 4-1 4-23 12h-2v2l-6 1-20-7-13-5-17-5-25-10-3-2 1-5 23-12z" fill="#030303"/>
<path transform="translate(617,576)" d="m0 0h16v57l-20 4-8 2-3 11-4 11-1 16 1 7-3 3h-1v-108z"/>
<path transform="translate(578,826)" d="m0 0h5l8 20v3l23 1 3 2-1 5-16 16 1 9 2 7v9l-6-1-14-9h-6l-17 10h-3v-7l3-13v-6l-7-8-11-9 1-4 4-1h22l3-10z" fill="#EBECEC"/>
<path transform="translate(818,405)" d="m0 0h6l4 10 4 13 17 4 6 4v5l-10 6-14 8-3 13-2 7-2 4h-6l-5-7-4-16-9-4-12-5-5-4 1-4 8-5 17-6 7-20z" fill="#ECEDED"/>
<path transform="translate(431,735)" d="m0 0h8l6 3 2 4v38l-3 14-4 8-4 5h-2l-1 3-9 4-15 5h-7l1-4 8-6 6-10 4-11v-24l-2-8v-3h-2l-5-9 1-5 12-3z" fill="#020202"/>
<path transform="translate(892,499)" d="m0 0h5l-1 3h-5l-2 6-5 4-4 5-9 6-13 5-9 3-11 5h-3v3l-45 16-50 17-16 6h-2v-2l12-6 21-8 12-5 14-6 11-2 1-2 9-3 21-9 12-4v-5l-3-2v-6l-11 2-12 3-3 2-11 2-8 3h-7v2l-9 3-10 2-8 4-6 2-10-1 3-2 62-20 43-13 21-2 9-3z" fill="#818180"/>
<path transform="translate(755,593)" d="m0 0h8l3 2 1 5-3 3-8 3-9 2-10 6-2 2-8 1v3h-2l-1 3-32 14-15 6-8 3h-2l-3-12v-7l2-11 7-1 1-2 14-1 10-3 6-3 14-4 6-2 16-1 8-2z" fill="#B8B8B8"/>
<path transform="translate(550,691)" d="m0 0h10l8 7 4 9 1 4v17l-5 12-8 11-6 4h-9l-7-6-4-10-1-6v-17l3-10 6-8z" fill="#030303"/>
<path transform="translate(893,539)" d="m0 0h10l2 2-1 6-15 6-5 4-14 6-7 5h-3l-1 3-12 6h-2v3l-23 10-18 7-27 11h-3l1-4 22-10 16-8 7-4 7-1 2-5 8-7 2-6-11 2-20 6-9 2h-8v2l-15 5-23 9-10 1 3-2 25-10 19-7 66-22 5-2 26-6z" fill="#828281"/>
<path transform="translate(268,879)" d="m0 0h24l12 5 17 6 16 5 8 3-1 5-15 8-8 5-6-1-20-8-12-5-26-9-15-5-1-5 6-3z" fill="#040404"/>
<path transform="translate(633,577)" d="m0 0 2 1 1 36v39l-1 24-15 2-21 6-2-1-1-14 1-9 7-20 3-3 15-4 11-1z" fill="#A0A0A0"/>
<path transform="translate(395,265)" d="m0 0 5 2 3 8 2 9h17l3 2v5l-13 9 1 8 2 8v8l-5-1-11-7-5-1-12 8-5-1v-8l3-9-1-5-10-8v-2h-2l1-4 1-1h19l2-9 3-8z" fill="#EAEBEB"/>
<path transform="translate(712,491)" d="m0 0h9l10 6 4 4 4 10 1 5-1 4-13 6-21 7-31 8h-6l-14-7-18-6v-4l6 1 9 3 11 3v2l10 1 17-5 10-2 1-3 6-5 6-2 8-1 4-2-3-9h-12l-4-4-10 1-33 7h-12l-1-3 32-7z" fill="#9E9E9E"/>
<path transform="translate(289,761)" d="m0 0 10 1-1 10-8 42-6 23-4 15-1 7-8 2h-10l1-10 14-49 11-37z"/>
<path transform="translate(494,709)" d="m0 0h8l6 3 5 5 4 8 2 8v12l-5 16-7 11-5 4-5 1h-8l-7-4-1-3 9-4 6-4 5-5 2-3 1-5v-13l-1-8h-11l-2 6-3 3h-11v-8l4-9 7-8z" fill="#040404"/>
<path transform="translate(1025,353)" d="m0 0h6l4 4v5l-5 4-10 4-20 6-43 10-6 1h-10l-4-5v-7l8-3 52-12z" fill="#6D6C6C"/>
<path transform="translate(957,270)" d="m0 0 4 1 4 4 3 8v3h17l1 5-7 7-2 1v10l1 10-3 1-7-3-6-4h-6l-9 6-7 1 1-10 1-3v-7l-9-7-1-5 9-2 8-1z" fill="#EAEBEB"/>
<path transform="translate(319,761)" d="m0 0h11l1 2 1 19-3 38-1 26 2 1-5 2v2l-12 4h-2v-15l3-32 3-31 1-15z" fill="#010101"/>
<path transform="translate(739,549)" d="m0 0 4 1v5l-3 3-3 5-6 1v2l-6 3h-3l-1 3-13 6-37 13h-2v-8l5-13 2-5 13-4 14-4 14-2 13-3z" fill="#B9B9B9"/>
<path transform="translate(547,773)" d="m0 0h17l8 2-1 4-11 6-4 4-17 9h-2v2l-10 5h-10l-7-3-15-3 2-4 13-8 16-12 1-1z" fill="#020101"/>
<path transform="translate(880,817)" d="m0 0 4 2 4 6 4 8 13 5 1 1v5l-5 5-9 5-7 14-2 3h-5l-3-3-4-11v-2l-4-2-8-5-3-4v-6l14-5 8-14z" fill="#9D9C9C"/>
<path transform="translate(893,582)" d="m0 0h7l-1 7-3 5-8 7-10 8h-2v3l-23 10-19 9-23 10-3 1v-4l22-12 16-8 5-3 5-5 9-6h2l-1-2-3-1h-11l-8 3-13 4-16 6-5 1h-7l3-2 19-7 26-11 10-2 13-5 6-3h5v-2z" fill="#828281"/>
<path transform="translate(258,762)" d="m0 0h7l4 1-2 11-10 29-14 39-1 2-4-1-8-6 1-7 6-15 4-15 11-26z"/>
<path transform="translate(301,653)" d="m0 0h14l8 7 2 5v14l-1 2h-2v3h-2l-1 3-6 3h-11l-8-5-4-10v-10l3-6 5-5z" fill="#010101"/>
<path transform="translate(479,890)" d="m0 0 4 1 6 7 1 4h9l2 1-1 7-4 7-3 12-2 3h-23l-1-1-1-13-4-6-3-4 1-3 12-3z" fill="#E9EAEA"/>
<path transform="translate(938,637)" d="m0 0 4 1 3 5 3 8 9 2 3 2v5l-5 6-4 4-2 7-3 5-2 1h-11l-5-3v-13l-6-2-4-5v-5l7-3h7l2-11h2z" fill="#EAEBEB"/>
<path transform="translate(773,258)" d="m0 0 3 1 4 8v2l14 1v5l-6 6v9l1 10-7-1-8-3-6 2-5 2h-4v-7l3-12-4-2-5-5 1-4h14l2-6z" fill="#B3B3B3"/>
<path transform="translate(545,543)" d="m0 0h25l28 3 21 6 13 6v2l-29 3h-14l-16-7-15-6-11-3z" fill="#070707"/>
<path transform="translate(891,424)" d="m0 0h3l7 11 5 5 8 7-1 3-11 6-5 8-4 7-5-2-6-9v-3l-9-3-1-1v-5l7-6 5-3 6-14z" fill="#6D6C6C"/>
<path transform="translate(396,935)" d="m0 0h4l3 6v4h2l1 2 10 3-1 5-5 7-3 13-2 1h-18l-1-1-2-17-4-2-2-3v-4l10-2 6-10z" fill="#EAEBEB"/>
<path transform="translate(466,798)" d="m0 0 9 1 14 10 13 7-1 3-15 7h-10l-20-6-4-2-1-4 6-9 7-6z" fill="#040404"/>
<path transform="translate(846,356)" d="m0 0h8l4 4v7l-5 5-5 3-22 5h-10l-4-2-4-6 2-7 5-4z" fill="#EAEBEB"/>
<path transform="translate(249,714)" d="m0 0h6l2 3-1 10-14 32-6 15-3 4h-12l1-7 8-19 8-16 8-17z" fill="#010101"/>
<path transform="translate(474,392)" d="m0 0h5l7 9 10 6v5l-2 3h-8l-3 9-2 5h-6l-3-2-5-10-9-2v-8l8-4z" fill="#EAEBEB"/>
<path transform="translate(340,556)" d="m0 0h8v36l-7 2h-7l1-27-12 2-7 1-1-5v-7z" fill="#010101"/>
<path transform="translate(977,424)" d="m0 0 7 1 3 4-1 7-12 6-17 5h-5l-12-9 1-4 6-5 16-2z" fill="#6D6C6C"/>
<path transform="translate(920,342)" d="m0 0h9l2 2 1 6-6 4-15 4-11 2h-10l-4-4v-6l1-2 26-5z" fill="#6D6C6C"/>
<path transform="translate(507,269)" d="m0 0 4 1 7 8 7 5v4h-2l-2 4-10 10h-5l-4-5v-2l-4-2-3-3v-7l7-5 4-7z" fill="#EAEBEB"/>
<path transform="translate(1076,366)" d="m0 0 5 2 4 7 9 6v4l-6 4-7 9-4 1-10-8-5-3 1-5 7-6z" fill="#9B9B9B"/>
<path transform="translate(661,883)" d="m0 0 6 1 5 8 7 5 1 3-9 6-4 8-3 1-5-2-4-7-7-3-1-1v-5l10-3 3-9z" fill="#B1B1B1"/>
<path transform="translate(609,588)" d="m0 0h11l1 2v35l-4 2h-8l-1-1-1-7v-21l1-9z" fill="#E3E4E4"/>
<path transform="translate(806,619)" d="m0 0 10 1 5 3-4 5-9 5-5 5-5 3h-6l-4-3v-2l-10-2 1-5 7-3 7-1v-2z" fill="#B9B9B9"/>
<path transform="translate(456,494)" d="m0 0 6 2 5 6 9 4-1 5-7 3-4 10-2 1h-6l-5-9-6-5v-4l6-3h2l2-9z" fill="#EBECEC"/>
<path transform="translate(613,696)" d="m0 0 6 1 4 4v8l-4 8-7 6-7 1-5-3-1-2v-9l6-8z" fill="#060606"/>
<path transform="translate(590,266)" d="m0 0h6l6 9 5 5-1 4-5 4-6 7-6-1-7-8-3-3 1-5 6-4z" fill="#EAEBEB"/>
<path transform="translate(1040,296)" d="m0 0 5 2 4 5v2l4 2 1 5-5 9-8 7-5-5-6-9-1-6 7-4 3-7z" fill="#EBEBEB"/>
<path transform="translate(609,640)" d="m0 0h6l1 1 8 1 4 6-1 7-5 10-5 3-8 1-2-1v-8l4-7h2v-3l-4-2z" fill="#B8B8B8"/>
<path transform="translate(999,610)" d="m0 0h5l9 8 1 6-8 9h-2v2h-5l-9-9-1-7 4-5z" fill="#EAEBEB"/>
<path transform="translate(244,519)" d="m0 0 4 2 5 6 7 4v4l-7 5-6 8h-4l-6-9-5-3 1-4 6-4 4-8z" fill="#EAEBEB"/>
<path transform="translate(973,711)" d="m0 0 5 1 10 9-2 5-10 11-5-1-11-9 1-4 7-4z" fill="#EAEBEB"/>
<path transform="translate(691,279)" d="m0 0h5l7 9 4 3-1 4-4 4-6 7h-5l-9-10-1-5 8-6z" fill="#EAEBEB"/>
<path transform="translate(422,562)" d="m0 0h11l8 6 2 4v4h-34v-5l7-7z" fill="#030303"/>
<path transform="translate(304,346)" d="m0 0 5 1 4 5 8 4-1 4-6 4-5 5-5 1-7-5-4-6 2-4 5-5z" fill="#9B9A9A"/>
<path transform="translate(551,707)" d="m0 0h6l4 6v16l-6 8-5-1-4-6-1-7 3-11z" fill="#E8E9E9"/>
<path transform="translate(1087,465)" d="m0 0h6l3 4-1 7-7 6-5 3-7-1-5-6 1-6 12-6z" fill="#6D6C6C"/>
<path transform="translate(485,746)" d="m0 0 6 1-2 5-15 8-9 6-4 1-1-4v-12l6-2 8-2z" fill="#070707"/>
<path transform="translate(925,652)" d="m0 0 5 1 1 3 4 3 7 2 1 2-3 6h-3v-2l-6 2 1 8 5 2 9 2-2 2h-11l-5-3v-13l-6-2-4-5v-5z" fill="#B2B2B2"/>
<path transform="translate(622,379)" d="m0 0 5 1 10 10-1 5-7 6-3 3-4-2-9-9 2-4 4-2 1-4h2z" fill="#EAEBEB"/>
<path transform="translate(937,770)" d="m0 0 7 2 9 7-1 4-10 10-5-1v-2l-4-2-3-4v-6z" fill="#E8E9E9"/>
<path transform="translate(633,577)" d="m0 0h1l1 60-5 1-2-1v-2l-11 3-8 3-3 6-2 12-3 9 1 8 1 3 3 2-3 3-6 1-1-15 1-9 7-20 3-3 15-4 11-1z" fill="#838382"/>
<path transform="translate(340,811)" d="m0 0 6 2 5 10 3 11 1 7-2 2-9 2h-6l1-3 3-3z" fill="#010101"/>
<path transform="translate(1015,409)" d="m0 0 6 1 6 6-1 5-8 9-7-4-3-3v-6l5-7z" fill="#6D6C6C"/>
<path transform="translate(586,476)" d="m0 0 6 1 4 5v7l-7 7h-5l-5-6-1-6 6-7z" fill="#ADADAD"/>
<path transform="translate(340,809)" d="m0 0h6l4 7 3 3 5 22-4 1-1-8-5-16-3-5-5-2 2 15 1 13-5 6 3 1-13 4-3-1 4-2v-3l9-5 1-29z" fill="#9E9E9E"/>
<path transform="translate(360,422)" d="m0 0h7l5 4 1 2v6l-5 5h-5l-6-6v-6z" fill="#EAEBEB"/>
<path transform="translate(456,494)" d="m0 0 6 2 5 6 9 4-1 5-2 1v-2l-6 2-3-5-3-6-5 4-3 9-4-1-2-7 6-2 2-9z" fill="#B3B3B3"/>
<path transform="translate(860,298)" d="m0 0h7l5 6-1 5-2 4-3 2-5-1-5-5v-6z" fill="#EAEBEB"/>
<path transform="translate(859,632)" d="m0 0h7l1 2-2 6-10 6-7 2-1-1 1-8z" fill="#838382"/>
<path transform="translate(498,559)" d="m0 0h16l4 3v3l-23 3h-5l1-4 4-4z" fill="#050505"/>
<path transform="translate(639,812)" d="m0 0 5 1 5 6-1 5-4 4h-5l-5-4v-6z" fill="#E7E8E8"/>
<path transform="translate(300,354)" d="m0 0h2v2h8l1-1h8l2 1-1 4-7 5h-7l-5-4-2-6z" fill="#B9B9B9"/>
<path transform="translate(781,724)" d="m0 0h5l4 4v6h-2l-2 4h-6l-4-4 2-7z" fill="#E7E8E8"/>
<path transform="translate(941,286)" d="m0 0h8l-1 4-3 9h-5l-7-6-1-5z" fill="#B3B3B3"/>
<path transform="translate(735,503)" d="m0 0 3 4 2 9-1 4-13 6-5 2-4-1 5-2v-2l10-6 3-4z" fill="#80807F"/>
<path transform="translate(828,456)" d="m0 0h2l-3 18-3 5h-6v-4-3h3l2-6 3-8z" fill="#B2B1B1"/>
<path transform="translate(787,572)" d="m0 0 3 1-6 2v2l-21 8-14 5h-6l3-2 25-10z" fill="#747373"/>
<path transform="translate(605,639)" d="m0 0 1 3-5 18-1 2v19h3v3l-6 1-1-15 1-9 7-20z" fill="#6E6D6D"/>
<path transform="translate(340,809)" d="m0 0h6l4 7 3 3 5 22-4 1-1-8-5-16-3-5-6-1z" fill="#999"/>
<path transform="translate(464,514)" d="m0 0 3 1-3 9-2 1h-6l-5-10 9 2z" fill="#B1B1B1"/>
<path transform="translate(1082,373)" d="m0 0h2l4 4 6 4v4l-10 1-2-5 1-6-2-1z" fill="#80807F"/>
<path transform="translate(677,611)" d="m0 0 3 1-1 1h-5l-1 3h-7v8l-1 3-1 26h-1v-38z" fill="#818180"/>
<path transform="translate(889,830)" d="m0 0 5 4 12 5v5l-5 5h-1l-1-9-8-4-2-2z" fill="#7C7C7B"/>
<path transform="translate(762,533)" d="m0 0 3 1-1 2-10 4-7 3-10-1 3-2z" fill="#80807F"/>
<path transform="translate(633,577)" d="m0 0h1l1 60h-4l-3-4h5z" fill="#717070"/>
<path transform="translate(481,745)" d="m0 0h9l2 1v5l-5 5-7 4-7 1 4-4 10-5h2l2-5h-12z" fill="#9A9A9A"/>
<path transform="translate(975,286)" d="m0 0h10l1 5-7 7-2-1 1-7h2v-2l-5-1z" fill="#B1B1B1"/>
<path transform="translate(570,846)" d="m0 0 1 4-5 3-13-1-3-1v2l-6 1-1 2-1-2 1-3 4-1h22z" fill="#A6A6A6"/>
<path transform="translate(369,285)" d="m0 0h18l-1 3-10 1h-6l-3 1 1-4z" fill="#9A9A99"/>
<path transform="translate(773,639)" d="m0 0 1 2-1 17-4 1-1-4 3-13z" fill="#7D7D7C"/>
<path transform="translate(712,491)" d="m0 0h9l10 6 4 4-2 1-5-3-5-2-6-3-5-1z" fill="#797878"/>
<path transform="translate(798,616)" d="m0 0 2 1-9 4-14 6-4 3-9 2 3-3 25-11z" fill="#747373"/>
<path transform="translate(825,606)" d="m0 0 2 1-3 4-14 4h-7l3-2z" fill="#767575"/>
<path transform="translate(494,796)" d="m0 0h2v2l9 2 11 3-3 1-19-2-3-2 1-3z" fill="#919191"/>
<path transform="translate(875,841)" d="m0 0h6l1 1-1 7-5 1-1-1z" fill="#B9B9B9"/>
<path transform="translate(622,634)" d="m0 0h8l1 3 3 1-6-1v-2l-11 3-8 3-3 1 1-4z" fill="#807F7F"/>
<path transform="translate(976,309)" d="m0 0h1l1 10-3 1-7-3 1-3 5-2z" fill="#AFAFAF"/>
<path transform="translate(405,284)" d="m0 0h17v4l-13-1-4-2z" fill="#9F9F9F"/>
<path transform="translate(962,272)" d="m0 0 3 3 3 8v3l-5-2-2-3z" fill="#B1B1B1"/>
<path transform="translate(472,902)" d="m0 0 1 3-7 3-3 1-2 2-2-5 4-2z" fill="#A1A1A1"/>
<path transform="translate(870,833)" d="m0 0 1 3-10 3-1 3h-2l-1 3-1-1v-6z" fill="#706F6F"/>
<path transform="translate(665,668)" d="m0 0 2 1-2 19-2 1v-16z" fill="#7D7D7C"/>
<path transform="translate(787,572)" d="m0 0 3 1-6 2v2l-8 3h-5l2-3z" fill="#706F6F"/>
<path transform="translate(811,459)" d="m0 0h2l3 7 1 9-3-1-3-11z" fill="#B0B0B0"/>
<path transform="translate(337,842)" d="m0 0 2 1-1 2 3 1-13 4-3-1z" fill="#858584"/>
<path transform="translate(830,426)" d="m0 0 2 2 17 4-1 2-9-1v-2h-6l-3-2z" fill="#A1A1A1"/>
<path transform="translate(340,809)" d="m0 0h6l5 8v6l-2-3-4-7-6-1z" fill="#737372"/>
<path transform="translate(341,805)" d="m0 0 5 1 5 8-1 3-4-7h-7l1-4z" fill="#B5B5B5"/>
<path transform="translate(939,771)" d="m0 0 5 1 4 4-3 1-1 2-3-1-2-4z" fill="#B0B0B0"/>
<path transform="translate(778,585)" d="m0 0h6l1 3-6 3h-4l1-4z" fill="#B9B9B9"/>
<path transform="translate(887,349)" d="m0 0h4l-1 10-3-1-1-2v-6z" fill="#80807F"/>
<path transform="translate(849,638)" d="m0 0h2l1 9-4 1-1-1 1-8z" fill="#6D6C6C"/>
<path transform="translate(936,771)" d="m0 0 2 3-1 3-5 5-2 1v-5z" fill="#ADACAC"/>
<path transform="translate(811,421)" d="m0 0h1l-1 9-5 3h-6v-2l9-3z" fill="#A0A0A0"/>
<path transform="translate(824,831)" d="m0 0 5 1-1 5-5 1v-6z" fill="#D9DADA"/>
<path transform="translate(315,565)" d="m0 0h1v5l10-3h7l-4 2-5 2h-9z" fill="#9A9A9A"/>
<path transform="translate(937,661)" d="m0 0h5l1 2-2 4-4-1-1-4z"/>
<path transform="translate(788,436)" d="m0 0h2v3h-2l-1 4-2 2-2-2 1-4z" fill="#A8A7A7"/>
<path transform="translate(358,786)" d="m0 0h2v3l13-1-2 2-3 1h-9z" fill="#9D9D9D"/>
<path transform="translate(780,269)" d="m0 0 12 1-1 3-9-1v-2z" fill="#999898"/>
<path transform="translate(603,850)" d="m0 0h11l2 2-8 1-5-1z" fill="#A4A4A4"/>
<path transform="translate(468,797)" d="m0 0h8l4 2-1 4-4-3-7-2z" fill="#A9A8A8"/>
<path transform="translate(677,611)" d="m0 0 3 1-1 1h-5l-1 3h-7l3-3z" fill="#828281"/>
<path transform="translate(787,377)" d="m0 0 3 2 1 5-2 4-2-2z" fill="#A9A9A9"/>
<path transform="translate(708,528)" d="m0 0h8l-1 2-12 3v-2l4-1z" fill="#7F7E7E"/>
<path transform="translate(712,491)" d="m0 0h9l4 4-13-2z" fill="#70706F"/>
<path transform="translate(618,513)" d="m0 0 3 1-2 2-9 2v-3z" fill="#818180"/>
<path transform="translate(494,796)" d="m0 0h2v2l2 2v2l-6-1v-4z" fill="#9F9F9F"/>
<path transform="translate(622,634)" d="m0 0h8l1 3 3 1-6-1v-2l-3 1h-8v-1z" fill="#7E7E7D"/>
</svg>
