<?xml version="1.0" encoding="UTF-8"?>
<svg version="1.1" viewBox="0 0 2000 2000" width="1280" height="1280" xmlns="http://www.w3.org/2000/svg">
<path transform="translate(0)" d="m0 0h2e3v2e3h-2e3z" fill="#FDFDFD"/>
<path transform="translate(812,822)" d="m0 0h65l29 2 32 3 19 5 13 6 10 4 11 5 14 6 12 7 9 8 2 6v15l-6 7-6 3 1 106v74l-2 10-7 7-7 16-6 12-10 13-7 7-15 11-10 6-8 3h-23l-5-2-8 11-11 14-4 7h11l13 4h10l16-8 14-9 5-2v-2l39-22 32-17 15-9 18-7 19-10 39-20 23-12 41-20 36-18 32-15 27-12 10-3 4 1 4 9-1 5-10 9-6 4-13 5-16 8-23 12-9 5-24 14-22 12-25 13-27 15-13 6-12 6-19 10-18 10-20 11-10 6-23 12-16 9-24 13-16 8-27 15-16 9-22 12-17 10-20 12-16 8-12 7-17 7-18 10-9 6-22 12-17 9-16 8-15 9-11 7-24 13-11 5-16 8-23 13-11 7-23 13-23 12-25 15-13 8-30 15-14 8-26 14-10 7-32 17-16 8-21 10-10 6-11 4h-11l-4-6v-11l6-7 12-6h2l1-5-12-6-38-14-24-9-14-6-11-4-20-7-17-3-10-3-5-6-1-2v-10l5-6 50-25 23-11 15-8 21-9 17-7 15-10 5-3h2l-3-5-11-9-10-10-8-10-8-11v-6l7-14 7-15 8-21 2-9-12-1-23-4-5-4-1-2v-9l4-11 6-10 11-23 7-16 8-16 9-17 15-30 7-17-1-10-1-5v-34l3-19 6-20 8-16 11-16 9-8 5-2v-2l4-1v-2l21-12 17-7 6-2v-52l-1-4-7-6-3-9v-12l2-7 59-1h54l7 2 5 8v10l-3 8-6 6-1 43 23-3 20-1v-20l4-11 2-4h2l2-5 9-8 8-4 10-3h26l14 5 9 6 8 8 3 6 4 13 1 2h18l-1-20-5-7v-6l6-7 15-9 24-12 24-9z" fill="#111010"/>
<path transform="translate(962,515)" d="m0 0h10l16 3 12 5 11 7 9 10 5-1 8-6 12-6 9-3 6-1h31l29 8 39-4 64-4h27l5 5 1 4v7l-4 5-10 3-6 1-61 3-20 2-15 2-20 4h-10l-12-8-13-4h-16l-16 4-8 4-8 7-7 7-9 2h-9l-4-6-9-10-6-5-14-7-5-1h-13l-15 4-5 3-2 3v10l2 6v8l-3 4-19 2-3-3-7-12-6-7-9-6-8-4-8-3-7-1h-28l-10 3-9 5-8 7-10 13-5 16-2 2-6 2-6 3-5-1-10-11-7-8-8-6-11-5-9-3-15-2h-18l-14 3-12 7-11 11-5 8-4 14-1 18-4 3-12 3h-5l-8-8-4-5-10-5-19-1-13 2-12 4-11 8-8 9-4 11v7l2 6-1 7-2 5h-16l-12 2-12 6-7 6-7 11-3 10v7l13 2 4 4v5l-3 5-14 8-8 6-4 6-2 6v10l5 12 8 8 12 6 11 2h21l16-4 15-8 7-7 5-10 2-12-1-9-2-8v-5l2-2 5-1h28l11-3 8-4h3v-2l5-3 2-3 2-15 2-2h11l5 4 4 9 5 5 10 4 9 2 16-1 17-5 12-5 10-7 12-11 10-9 4-2 5 1 10 11 11 15 8 4 11 3h24l20-4 15-8 3-1 2-4 9-10 6-10 3-7 2-14 4-5 7-3 6 1 8 6 11 14 10 7 11 4 4 1h15l21-5 14-6 9-6 10-8 8-8 9-13 5-6 9-5h11l10 4 2 1 15 1h12l16-2 10-3 12-6 5-4 6-10 4-6 11-1h22l20-4 10-3 7 1 3 5 2 5-1 5-6 8-14 7-7 3-10 1-2 2-20 1-8 7-10 6-14 6-19 5-10 2-3 1h-28l-10-5-6-4-3-1-2 5-8 11-9 10-5 7h-2l-1 3-16 11-16 8-19 5-15 2h-14l-19-4-8-4-11-8-3-3h-3l-9 16-6 7-10 8-19 13-11 5-10 3-11 1-3 2h-22l-18-5-17-9-11-9-4-3-4 6-9 7-14 8-16 6-13 3h-25l-16-4-12-7-5 1-7 6-16 8-9 4h-11l-1 9-7 14-9 13-8 8-13 10-16 8-12 3h-31l-15-3-12-4-8-5v-2l-4-2-8-9-8-16-3-9v-19l5-17 6-10 4-5-1-5v-13l4-15 5-10 7-9 9-9 10-7 12-5 7-1 3-8 8-16 7-9 2-3h2l2-4 10-9 16-8 12-3h36l10 3 6 2 8-16 7-10 5-5 11-9 6-4 21-7 10-2h31l28 6 12 5 10 7 6 3 2-6 6-7 14-10 16-8 17-4h28l16 3 14 5 10 7 6-1 3-1v-2l9-6 11-5 14-4z" fill="#121111"/>
<path transform="translate(1736,664)" d="m0 0h7l6 4 2 3-1 7-4 6-8 5-34 12-32 9-21 7-40 15-38 13-31 11-27 10-68 24-36 12-35 13-26 10-36 13-26 9-24 9-20 7-28 10-43 14-49 18-37 13-19 7-22 8-8 1-2-5-1-7v-9l2-5 6-5 2-4 1-6 1-16 6-2 26-6 40-12 36-12 38-12 36-12 29-9 33-10 29-9 40-10 45-15 29-9 49-15 35-11 40-14 28-8 25-7 31-10 24-7 49-17 16-5z" fill="#919292"/>
<path transform="translate(1683,788)" d="m0 0h11l6 5 1 7-7 8-17 9-28 12-33 16-19 9-12 6-28 12-20 8-22 10-27 12-26 12-16 8-29 14-25 10-51 21-16 8-29 13-21 9-35 17-4 1-6-9-7-6-6-3-5 1-3 1-2 6v13l1 9-8 5-22 10-16 6-25 12-31 16-41 18-17 8-14 8-1-3 3-26 1-31 2-5 7-3 26-8 41-16 18-8 26-11 41-15 24-11 25-10 38-13 15-7 26-11 29-11 29-13 24-9 20-8 30-13 29-10 30-12 26-11 30-13 34-14 19-8 17-8 25-10z" fill="#464646"/>
<path transform="translate(1629,754)" d="m0 0h7l7 8v7l-5 7-13 8-16 6-21 7-45 18-23 10-32 13-15 6-57 24-24 8-14 5-31 14-50 20-19 9-35 13-15 6-21 9-13 5-27 9-26 11-36 15-28 12-20 8-18 9h-2l-1-4v-52l1-4 15-4 27-7 26-9 38-14 28-9 12-5 33-13 36-13 36-12 26-8 46-17 31-12 35-12 24-9 38-13 36-12 19-6 19-7 40-15z" fill="#919292"/>
<path transform="translate(1155,1160)" d="m0 0 5 3 4 6 13 33 8 21v2h54l11 1 2 2-1 7-7 8-14 13-8 7-10 9-8 9 2 9 8 32 5 16-1 5-3 3h-6l-9-6-11-7-9-5-11-7-11-8-6 1-11 8-14 8-11 7-14 8-7 1-2-2 1-11 10-31 5-15 1-4-11-11-11-9-13-13-8-7-7-8v-6l3-2 40-1h23l4-10 13-35 6-15 4-5z" fill="#100F0F"/>
<path transform="translate(472,980)" d="m0 0h25l14 5 14 9 8 7 7 9 4 10 4 13v29l-4 14-4 12-8 11-8 8-11 6-16 4h-25l-9-4-9-6-12-11-8-9-6-10-4-10-1-5v-21l5-18 8-16 4-6 7-6 5-5 9-6z" fill="#111010"/>
<path transform="translate(1683,788)" d="m0 0h11l6 5 1 7-7 8-17 9-28 12-33 16-19 9-12 6-28 12-20 8-22 10-27 12-26 12-16 8-29 14-25 10-51 21-16 8-29 13-21 9-13 6-1-3-2-1h4l1-3 26-13 9-5 5-2 16-8 9-5 1-2h2v-3l8-6 10-5 2-3h3l-1-4-6-2-8-1h-9v2h-4v2l-4 1-11 2-5 2-2 1-6 1-13 6-7 2-2 1-3-1v2l-11 2-8 1 3-2 27-9 15-7 26-11 29-11 29-13 24-9 20-8 30-13 29-10 30-12 26-11 30-13 34-14 19-8 17-8 25-10z" fill="#919292"/>
<path transform="translate(1304,878)" d="m0 0h7l1 1v7l-6 7-9 7-2 5h-2v3l-5 2-14 4-2 3-20 10-5 1-1 3-5 1-2-1v2l-10 4-5 3-9 3-4 4-2 4-15 6-27 9-26 11-36 15-28 12-20 8-18 9h-2l-1-4v-52l1-4 15-4 27-7 26-9 38-14 16-5 10-2 5-2 8-2 9-4 8-3 6-3 7-2 3-2 9-1v-2l12-2v-2l9-1h2l5-3h3 7l4-3 9-1 13-4 9-3z" fill="#5F5F5F"/>
<path transform="translate(470,957)" d="m0 0h27l16 3 16 8 11 8 13 14 8 13 6 16 4 18v26l-3 16-6 16-7 13-8 10-8 7-16 8-13 6-17 2-17-1-17-5-22-11-16-16-9-14-6-14-5-18-1-5v-11l2-17 4-17 8-16 9-13 7-7 14-10 12-6zm2 23-11 4-9 6-7 6-7 8-8 14-5 15-2 8v21l3 10 6 12 8 10 10 10 11 8 8 4 3 1h25l16-4 11-6 9-9 7-10 6-18 2-8v-29l-6-18-4-8-8-9-12-9-14-7-7-2z" fill="#FCFCFC"/>
<path transform="translate(1293,808)" d="m0 0 8 2 1 3h-2l2 5 6 5-1 7-7 3-10 4-9 3-19 7-5 3-7 3-4 2-6 1-1 4h-4l-16 3-4 3-10 4-13 5-8 3-2-1v2l-9 3-7 3-6 2-8 4-11 4-2 2-5 1-3 3h-2v2l-19 7-64 23-8 1-2-5-1-7v-9l2-5 6-5 2-4 1-6 1-16 6-2 26-6 40-12 33-11h8 3l1 2 4-3 2 1v-2l11-4 2-2 9-2 5-2h3v2l7-4 7-1 2-2 2 1 1-4 7 1 3-1 2 1v-3l5-1h3l7-3 13-1 3-1v-2l9-1 6-3 6-1h4v-2z" fill="#5F5F5F"/>
<path transform="translate(717,921)" d="m0 0h8l11 7 5 3v2l4 2 3 2v2l4 2 14 19 4 7 6 21 2 11v13l-2 2-33 6-47 11-8 1-1-2-2-17-4-17-6-16-7-13-7-9v-2h-2l-7-8-9-9-7-6-1-3 1-1 29-2 19-2 25-2z" fill="#FDFDFD"/>
<path transform="translate(900,1016)" d="m0 0 5 1 1 18-5 3-25 6-16 4-13 4-11 3-7 2-26 7-9 3-26 8-36 10-40 12-36 10-21 4-2 1-3 9-11 30-8 18-4 10-5 14-6 12-12 26-1 1-8 1h-13l-1-6 8-17 6-11 6-17 9-19 4-11 16-32 7-17 5-9 2-2 23-7 26-7 21-6 9-2 23-7 21-5 15-5 25-7 19-5 28-6 29-8 30-10z" fill="#FDFDFD"/>
<path transform="translate(1113,768)" d="m0 0h13l5 4 13 7 4 5 4 9 3 13-1 5-16 8-21 8-31 9-35 9h-6l-18-10-32-11-45-17 4-2 28-6 39-9 29-6 31-8 22-6z" fill="#464646"/>
<path transform="translate(1341,1067)" d="m0 0h5l4 6 11 32v2l47 1 1 6-10 10-11 8-13 12v7l4 19 3 12 1 9-4 1-11-7-15-9-9-4-5 1-21 13-11 6h-7v-9l6-21 3-11-1-5-7-8-10-9-10-8-5-7 1-5 6-1h41l1-6 10-24z" fill="#111010"/>
<path transform="translate(824,909)" d="m0 0h8l13 4 12 8 8 8 9 14 10 22 3 7 1 11-8 3-27 6-34 8-13 3h-5l-3-22-5-18-9-20-5-7v-2h-2l-7-8-9-8 2-2 27-4 24-2z" fill="#FDFDFD"/>
<path transform="translate(592,940)" d="m0 0h7l10 4 9 5 14 12 8 9 11 18 6 18 2 10 1 11v15l-1 1-23 4-27 7-8 2h-5l-1-20-3-19-5-18-8-16-10-14-7-8-16-9-2-4 13-3 24-4z" fill="#FDFDFD"/>
<path transform="translate(675,1296)" d="m0 0 8 1 5 3 12 4 10 3 5 3-1 3-17 10-5 3-18 10-12 6-16 9-14 8-15 10-8 4-14 3-5 4-4 2-7-1-19-5-11-2-10-4-18-6-8-2-2-3 2-2 23-6 18-6 17-5 21-9 21-13 12-6 13-4 17-5z" fill="#FDFDFD"/>
<path transform="translate(1340,936)" d="m0 0 10 1 5 3v4h-3l-2 4-11 6-5 4h-2v3h-2l-2 4-64 32-3 3v4l-21 10-4 1-6-9-7-6-6-3-5 1-3 1-2 6v13l1 9-8 5-22 10-16 6-25 12-31 16-28 12-3-4 4-3 12-6 23-11 5-3h2v-2l20-11 8-4 10-3 8-3h4v-2l10-4 4-3h3l2-4h2v-15l2-4 3-1 1-3h2v-2l4-4h2l3-6-7-1-8 4h-3v2l-11 3-10 4-10 2h-5l-2 4-6 2-4 2h-5v2l-9 3-2-1-1 3-8 1-1 3-6 1-4 4-8 1-1 2-12 1-1 2v-2l-4 2h-7l3-2 36-14 18-8 26-11 41-15 24-11 30-12 14-3h8v-2l5-1 14-5 8-4h5l4-3 10-1 5-2 2 1v-2h4v-2z" fill="#606060"/>
<path transform="translate(976,900)" d="m0 0h12l2 3 1 43v44l-3 1-12 1-23 5-7 3-4 11-4 14-4 10-1 17 1 12 1 1h5l-3 3-9 5v-167l1-1 22-2 13-2z" fill="#FDFDFD"/>
<path transform="translate(905,1291)" d="m0 0h5l7 14 5 16 2 6 33 2 7 2v5l-9 11-16 15-3 3 1 8 3 9 3 13v7l-1 1-7-1-26-16-3-1-9 5-8 5-14 8h-5l1-11 3-12 3-14-4-7-10-10-11-9-4-4 1-5 7-2 18-1 15 1 3-9 9-24 2-4z" fill="#111010"/>
<path transform="translate(329,1405)" d="m0 0 6 1 30 11 16 6 22 6 29 11 23 8 5 4-1 3-24 12-14 8h-2v2l-3 2h-6l-3-2-17-5-20-8-11-4-23-6-26-10-15-6-6-4-2-2 1-4 9-5 26-13z" fill="#FDFDFD"/>
<path transform="translate(1282,632)" d="m0 0 5 1 4 8 5 19 2 7 2 3 20 4 12 4 4 4v6l-5 4-18 10-16 9-3 10-3 19-5 8h-6l-5-5-4-7-4-20-5-6-14-5-15-6-5-4-4-4 1-4 10-7 13-5 15-4 2-1 5-19 6-15 3-3z" fill="#111010"/>
<path transform="translate(676,1149)" d="m0 0h10l8 4 4 8 1 9v41l-3 20-4 13-8 13-3 4h-2v2l-19 9-8 3-10 3-12 2-2-1 2-4 10-8 8-9 7-14 4-15v-32l-4-17-6-11-2-5h-2l-1-7 5-3z" fill="#FDFDFD"/>
<path transform="translate(867,1079)" d="m0 0 7 1 6 4 7 8 5 10 3 12v23l-6 16-8 12-9 10-7 4-10 1-7-3-7-8-5-12-3-16v-19l4-16 6-11 12-12 7-3z" fill="#FCFCFC"/>
<path transform="translate(1180,927)" d="m0 0h11l6 4 1 5-3 5-5 1v2l-9 2-9 1-12 6-7 4-5 5-2 1h-7l-4 2v4h-2l-1 3-17 7-14 7-9 3-18 9-9 3-4 2h-4v2l-9 3-5 1-2-2 1-1-2-10-2-7v-10l2-5 1-5v-6l7-1h2l2-1 1-2 5-2 6 1 1 1 2-2 5 1 16-4 4-3 5-1 1-2 9-1 3-3 7-1 2 1v-2h3l1-2 11-2h11l19-2 6-3 7-5z" fill="#464646"/>
<path transform="translate(1397,780)" d="m0 0h5l-2 4-7 1-1 3-2 2-2 5-8 5-3 5-7 5h-2v2l-3 1-3 3-7 2-7 3-3 1-1 2-10 1-4 3-9 3-3 2-4 2-9 3v3l-52 19-20 7-36 12-35 12-30 11-3-1 4-1 1-3 6-2 8-4 6-2 6-3 6-2 7-3 9-2v-2l9-2 8-4 10-4 9-4 1-1 16-3 2-1v2h2l1-4 9-3 12-6 24-10 9-3 10-3 3-1v-7l-7-6 1-7-14-1v2l-11 2-5 3h-9v2l-5 2-11 1-9 4h-3l-3-1v3l-7 1-5-1-1 3-15 5h-4l-5 1-12 4-4 2-2 2h-4-2v2l-6 2-9-2 3-2 35-11 36-12 29-9 33-10 29-9 15-1 3 1 9-3h7l2-2 12-3 2-1 13-1z" fill="#7C7C7D"/>
<path transform="translate(431,1373)" d="m0 0h21l13 6 46 16 17 5 12 5-1 4-16 8-14 9-8 5-5-1-11-5-15-5-12-5-5-3-17-6-28-10-22-7-8-3-2-2 1-4 12-6 4 1h15z" fill="#FDFDFD"/>
<path transform="translate(1401,841)" d="m0 0 9 1 4 4 1 6h-2v2l-9 4-13 4-7 6-10 5-13 5-11 8-6 2-1 3-6 3h-3v2l-8 4-5 2v2l-8 3-1 2-22 9-12 6-35 13-15 6-17 7-2-1 3-5 6-3 10-4 8-4h3v-2l7-1 1-2 8-3 13-7 4-2 3-3 7-3 11-2v-3l2-1 1-4 8-7 6-5 1-4v-5h-7l-7 2-16 5-12 3-5 1-3 2h-6-3l-6 4-1-2-4 1h-5v2l-10 3-2-1v2l-11 3-3 2-7 2-7 3-5 2-9 4-16 5-4-1 24-9 27-11 39-14 36-12 26-8 14-5 9-1 9-4 15-5 4-2 7-1 2 1v-2l9-1 4-1 8-3h6z" fill="#7C7C7D"/>
<path transform="translate(618,414)" d="m0 0 5 1 4 8 5 18 1 4h26l5 3-1 7-10 7-11 8 1 6 4 16 1 3v11l-7-1-10-6-12-9-4 2-18 12-5 1-4-3 1-8 6-18v-5l-17-14-4-5v-4l5-2h26l3-10 6-16z" fill="#111010"/>
<path transform="translate(990,903)" d="m0 0h1l1 25 1 82-1 47-16 1-31 8-7 3-3-1 4-2h-5l-1-2-1-14 1-15 6-16 5-17 4-4 13-4 22-4h7z" fill="#5C5C5C"/>
<path transform="translate(452,1189)" d="m0 0 14 2 1 3-7 40-7 35-5 18-3 13-6 23-2 7-1 10-1 2-15 3h-12v-7l14-50 7-23 5-20 5-15 7-25 5-15z" fill="#FDFDFD"/>
<path transform="translate(1603,552)" d="m0 0h8l6 5 1 7-4 5-12 6-29 9-36 9-45 10-11 2h-10l-5-5-2-4v-10l8-3 36-8 39-9z" fill="#909191"/>
<path transform="translate(1113,768)" d="m0 0h13l5 4 13 7 4 5 4 9 3 13-1 5-16 8-21 8-31 9-35 9h-6l-18-10-32-11-2-4 5-1v2l3-1 4 3 5 1 9 2 7 2 9 2v3l7 1 6 2 6-2 9-2 6-3 9-2 2-2 8-1 3-1 1-3 5-2 2-4 10-5 16-2 4-4h2l-1-11-4-5-6 1-1 1h-11l-8-8-7 1-36 8-30 6h-11v-3h-5v-1l35-7 35-9 22-6z" fill="#606060"/>
<path transform="translate(775,1108)" d="m0 0h8l8 3 6 5 7 10 4 10 2 10v18l-4 17-6 13-8 11-7 6-10 3h-10l-11-7-2-5 10-2 11-6 8-7 6-9 2-12v-13l-2-15h-2v-2l-3-1h-8l-3 3h-2l-2 6-4 6-11 2h-9l1-12 3-9 6-9 9-9 9-4z" fill="#FDFDFD"/>
<path transform="translate(1497,422)" d="m0 0 5 1 5 8 6 16h12l13 1 2 1v5l-7 7-8 7v11l2 13v6l-1 1-8-1-16-10-1-1h-5l-7 6-11 6-10 1 1-8 5-17v-5l-10-9-7-6-1-4 6-2 20-2 3-3 8-17z" fill="#121111"/>
<path transform="translate(498,1189)" d="m0 0h17l2 6 1 24-3 47-3 29v27l9-2v2l-15 7-17 6h-3v-16l2-21 1-18 3-22 2-22 1-4 2-37z" fill="#FDFDFD"/>
<path transform="translate(1156,858)" d="m0 0 4 1 1 5-2 4h-3l-1 4-4 7-9 3v2l-9 4-5 2v2l-5 3-12 6-8 2-13 5-9 3-10 4-20 7-5 1-1-5 2-11 2-1 6-18 1-4 6-3 25-6 3-2 14-3 8 1 1-2h6l6-3 18-3 12-4z" fill="#464646"/>
<path transform="translate(863,1208)" d="m0 0h12l13 2 7 3-4 4-11 6-5 2v2h-2v2l-10 6-16 8-6 4h-2v2l-11 6-6 3h-8l-29-7-14-2 1-3 7-4 16-10 10-7 14-11 7-5h19z" fill="#FDFDFD"/>
<path transform="translate(1375,1276)" d="m0 0 4 1 4 5 9 19 5 4 16 5 2 1 1 5-6 9-11 5-5 3-5 7-6 16-5 6-6-1-4-5-7-19-7-6-9-5-5-5-3-6 1-5 7-3 15-4 9-17 3-6z" fill="#606060"/>
<path transform="translate(1395,909)" d="m0 0h7l4 1v5l-2 5-1 5-12 9-5 6h-2l-1 3-4 1-1 3-7 4h-2l-1 5-27 11-16 8-29 13-21 9-13 6-1-3-2-1h4l1-3 26-13 9-5 5-2 16-8 9-5 1-2h2v-3l8-6 10-5 2-3h3l-1-4-6-2-8-1h-9v2h-4v2l-4 1-11 2-5 2-2 1-6 1-13 6-7 2-2 1-3-1v2l-11 2-8 1 3-2 27-9 15-7 22-9 13-4 9-2 12-4 16-8 5-2h5l1-3 5-1 2 1h5z" fill="#7B7B7C"/>
<path transform="translate(404,1190)" d="m0 0 16 2-1 10-6 18-4 10-6 19-4 10-13 37-9 24-4-2v-2l-4-2-9-7v-6l11-27 5-20 8-20 5-12 7-16z" fill="#FCFCFC"/>
<path transform="translate(473,1020)" d="m0 0h16l8 4 7 8 4 10v16l-6 11h-2l-2 4-8 4-3 1h-13l-10-5-5-5-5-12-1-4v-9l5-13 7-7z" fill="#FDFDFD"/>
<path transform="translate(750,1391)" d="m0 0 5 1 5 6 7 11 12 1 4 2-1 7-8 15-4 17-4 5h-34l-3-3v-18l-3-6-6-7-3-6 3-2 16-2 4-4 7-14z" fill="#121111"/>
<path transform="translate(1466,995)" d="m0 0 5 1 5 10 3 10 3 3 12 1 6 4v7l-8 9-6 4-2 12-4 6-3 3-6 2h-10l-9-3-1-2-1-20-6-2-8-7-1-9 5-3 16-3 4-15z" fill="#131212"/>
<path transform="translate(1393,661)" d="m0 0 4 2 6 9 6 12 4 2 11 8 5 5-1 3-16 8-5 4-10 20-2 2-5-1-12-18v-2l-4-2-10-3-3-3 1-7 6-5 13-8 9-22z" fill="#909191"/>
<path transform="translate(1208,404)" d="m0 0 4 1 3 8 5 8 18 1 3 1-1 6-9 9-2 1 1 12 2 12v5l-3 1-16-7-6-1-14 7h-6l-1-1 1-9 4-13v-5l-8-6-7-8v-3l7-1h17l4-9z" fill="#484848"/>
<path transform="translate(619,1460)" d="m0 0h5l6 13v3h2l2 4 16 4v5l-11 16-3 18-4 2h-27l-2-2-1-21-2-4-4-2-6-9 1-4 15-2 3-4 4-9z" fill="#151414"/>
<path transform="translate(1325,556)" d="m0 0h9l7 8v8l-4 6-5 4-9 4-18 4-19 4h-9l-7-3-6-7-1-2 1-9 5-6 7-3 39-6 9-1z" fill="#141313"/>
<path transform="translate(859,848)" d="m0 0h12l26 2 17 2 16 1 25 7 13 4 16 8 3 1v2l-38 3-9 1h-18l-16-6-16-8-15-6-10-3-10-2-3-3v-2z" fill="#FDFDFD"/>
<path transform="translate(734,1246)" d="m0 0 7 1 10 9 10 8 11 5 12 6-1 4-23 11-3 1h-8l-17-5-18-5-8-4-1-3 7-13 9-9 6-4z" fill="#FDFDFD"/>
<path transform="translate(391,1115)" d="m0 0 6 1 4 6 1 4-3 11-5 11-12 27-5 12-6 16-6 11-3 2-17-1 1-7 5-11 7-17 9-17 10-23 12-23z" fill="#FBFBFB"/>
<path transform="translate(741,612)" d="m0 0h6l5 5 3 6 6 5 14 8 1 5-4 6-2 1h-10l-8 20-2 2h-7l-3-1v-2h-2l-4-9-3-5v-2l-15-3-1-2v-10l9-3 6-4 6-9z" fill="#121212"/>
<path transform="translate(536,869)" d="m0 0h8v56l-9 2-13 1 1-12 1-31-19 4-7 2h-4l-2-8v-10l1-1z" fill="#FDFDFD"/>
<path transform="translate(1533,662)" d="m0 0 5 3 4 6 1 6-4 6-12 5-27 9-11 2-21-15v-4l11-9 2-2 13 1z" fill="#919292"/>
<path transform="translate(792,420)" d="m0 0h5l14 16 9 6v5l-8 10-10 10-5 3h-5l-8-8v-2l-4-2-7-8v-8l2-3 7-4 3-1 2-6z" fill="#111010"/>
<path transform="translate(1447,534)" d="m0 0 5 1 3 4 1 8-3 3-14 5-21 5-20 3h-6l-5-3-2-4-1-7 3-5 20-4 30-5z" fill="#909191"/>
<path transform="translate(1682,572)" d="m0 0 5 1 8 14 8 5 7 4v4l-5 4-6 4-9 12-5 4-5-2-10-11-10-5-1-5 5-5 9-6 7-15z" fill="#5F6060"/>
<path transform="translate(956,919)" d="m0 0h12l1 1 1 7v49l-5 3-4 1h-10l-1-3-1-19v-16l1-18 1-4z" fill="#1B1A1B"/>
<path transform="translate(1034,1380)" d="m0 0 7 1 5 10 5 5 9 6 2 4-5 4-9 5-3 5-3 7-2 2-8-1-6-9-2-4-3-2-8-2-2-4 1-5 7-3 7-2 5-10z" fill="#4A4A4A"/>
<path transform="translate(1261,967)" d="m0 0h5l1 1 9 2 6 3v2h-2v2h-2l-1 3-7 4h-3v2l-6 3-1 3-4 2-1 2-5 2-3 3-5 1-6-2v-2h-3l-2-4-6-2-7-2h-2l-1-5 6-4 14-4 4-1v-2l8-3 12-3z" fill="#464646"/>
<path transform="translate(713,773)" d="m0 0 6 1 6 7 5 5 12 4 2 5-5 5-9 3-5 15-6 2-7-1-3-8-3-5-8-5-3-5 1-4 10-3 3-4 3-11z" fill="#0F0E0E"/>
<path transform="translate(923,415)" d="m0 0h7l3 4 3 7 7 7 6 5-1 5-8 6-7 9-5 3-6-1-12-13-5-5-1-6 9-4 4-5 5-11z" fill="#131212"/>
<path transform="translate(1626,463)" d="m0 0 5 1 4 5 4 6 6 4 3 4-2 6-6 11-10 11-5 1-8-10-7-11-2-4v-5l2-2 8-3 6-13z" fill="#121111"/>
<path transform="translate(958,1088)" d="m0 0 7 1 7 5 2 3-1 9-2 6-6 10-8 6-5 3-9-1-5-4-2-4v-10l5-9 8-8z" fill="#FBFBFB"/>
<path transform="translate(1562,952)" d="m0 0 6 1 13 11 2 2 1 8-7 10-10 8-7-1-12-12-3-5v-6l4-6 11-8z" fill="#121212"/>
<path transform="translate(381,811)" d="m0 0 5 1 8 11 13 8v4l-10 7-7 8-5 6h-4l-10-14-8-4-2-4 4-4 7-4h2l2-6z" fill="#161515"/>
<path transform="translate(1522,1110)" d="m0 0 4 1 14 12 4 4-2 5-8 8-6 8-4 4-5-1-9-7-10-9-1-3 5-4 8-4 5-6z" fill="#181717"/>
<path transform="translate(1082,435)" d="m0 0 5 1 9 12 10 8-1 3-6 4-6 10-7 6h-5l-14-16-4-5 1-3 10-6 4-6 3-7z" fill="#121111"/>
<path transform="translate(954 1e3)" d="m0 0 3 1h3l5 3h4l4-1 3 2 4 7v8l-4 9h-2v6l-3 3h-2v3h-3l-1 2-6 1h-9l-1-1v-11l6-11h2l2-6 1-1h-6v-2l-3-1 1-9z" fill="#464646"/>
<path transform="translate(530,1267)" d="m0 0h9l5 6 5 12 3 15 4 10 1 4-8 3-20 4h-6l3-3 6-4h2l-1-18-2-23z" fill="#FEFEFE"/>
<path transform="translate(862,1104)" d="m0 0h8l3 3 3 8v23l-5 10-4 4h-5l-7-8-2-4-1-9 4-17 5-9z" fill="#141313"/>
<path transform="translate(664,878)" d="m0 0h9l10 4 7 7 2 6v5h-52v-7l9-10 6-3z" fill="#FCFCFC"/>
<path transform="translate(477,540)" d="m0 0 4 1 7 9 8 5 6 3-4 5-6 3-7 9-6 3-8-1v-3l-4-2-7-9-3-3v-2l8-5 7-9z" fill="#616161"/>
<path transform="translate(1702,726)" d="m0 0h6l3 4 1 3v9l-5 6-16 10h-6l-6-4-5-6-1-5 3-6 11-6z" fill="#909191"/>
<path transform="translate(973,591)" d="m0 0 5 1 8 8 7 8 3 3v4l-5 3-11 12-4 1-15-14-3-4 2-4 6-5 3-6h2l1-6z" fill="#121111"/>
<path transform="translate(760,1165)" d="m0 0 7 2 1 3-6 7-30 15-7 5-4 1-1-1-1-22 1-2 11-2 6-2z" fill="#FDFDFD"/>
<path transform="translate(1465,1204)" d="m0 0 5 1 11 7 7 5 1 4-8 8-7 8-2 2h-6v-2h-2v-2l-4-2-5-6-2-3 1-7 7-9z" fill="#121111"/>
<path transform="translate(1446,1020)" d="m0 0h6l2 5 3 1 2 3 4 2h7l4 2v7l-3 3h-2v2h-5l-1-3-5 1-4 1 1 13 3 3 12 3h4l3 2-6 2h-10l-9-3-1-2-1-20-6-2-8-7-1-9 5-3z" fill="#4C4C4C"/>
<path transform="translate(1586,639)" d="m0 0 8 1 8 7 4 5-1 4-12 13-3 3-7-4-7-7-2-3 1-7 6-8z" fill="#909091"/>
<path transform="translate(916,744)" d="m0 0 7 1 7 8 1 2v7l-6 8-6 5-6-1-6-5-4-8 1-5 7-8z" fill="#4A4A4A"/>
<path transform="translate(563,659)" d="m0 0h10l7 6 3 6-1 7-5 6-3 2h-6l-6-4-4-7v-7l3-6z" fill="#141313"/>
<path transform="translate(1346,465)" d="m0 0h7l5 4 4 6 1 4-5 9-5 4h-6l-8-7-2-5v-6l7-8z" fill="#141313"/>
<path transform="translate(1351,987)" d="m0 0 3 1v7l-3 6-15 8-12 3-1-5 2-7 5-5 8-5 5-2z" fill="#7B7C7C"/>
<path transform="translate(536,1257)" d="m0 0 5 3 5 8 5 13 5 23 3 10h-3l-1-4-4-10-4-18-6-12-2-2-9-1 2 6 3 38-1 3-10 6h11l-4 2-15 4-4 2-3-1 10-5h-2-5l5-4 14-7v-21l-1-16-1-2v-8l2-5z" fill="#4E4E4E"/>
<path transform="translate(713,773)" d="m0 0 6 1 6 7 5 5 12 4 2 5-3 4h-2v-2l-8 3-4-2-2-8-1-3-2-1v-4h-2l-1 2-7 4-2 6v8l-4 1-5-2v-5l-3-5 9-3 3-6z" fill="#4A4A4A"/>
<path transform="translate(965,993)" d="m0 0h5l-4 2-13 4-6 7-2 10-2 14-3 5-2 11 1 10 3 5v2l6-2 3 2-6 1v2l-7 3-3-1 4-2h-5l-1-2-1-14 1-15 6-16 5-17 4-4 13-4z" fill="#7A7A7B"/>
<path transform="translate(1e3 1269)" d="m0 0 5 1 5 4 4 6-1 7-8 7-7-1-8-7v-7l6-8z" fill="#161515"/>
<path transform="translate(781,873)" d="m0 0h14l10 2 4 4v4l-27 2-9 2h-8l2-4 6-7z" fill="#FCFCFC"/>
<path transform="translate(1221,1131)" d="m0 0h6l5 5 2 3v6l-4 6-3 3h-7l-5-4-2-4 1-7 4-6z" fill="#161515"/>
<path transform="translate(470,552)" d="m0 0 2 3v2l3-1h9l1 2 2-1-2-2 9-1 8 4-4 5-6 3-3 4h-10l-2-2-6-4-2-6-2-2z" fill="#484848"/>
<path transform="translate(1482,447)" d="m0 0 2 1-1 4h-2v2l-3 3-2 10-4 1-14-12-2-5 6-2z" fill="#4C4C4C"/>
<path transform="translate(1294,712)" d="m0 0 2 1-3 16-2 11-5 8h-6l-4-4 3-1-1-5 5-2 4-9 2-4v-6z" fill="#4A4A4B"/>
<path transform="translate(1148,786)" d="m0 0 3 4 4 16-1 5-16 8-16 6-3-1 9-4v-3l5-1 9-6h2v-2l3-3 4-5-2-9z" fill="#7F7F80"/>
<path transform="translate(1214,826)" d="m0 0h5l-1 4-15 5h-4l-5 1-12 4-4 2-2 2h-4-2v2l-6 2-9-2 3-2 35-11z" fill="#808081"/>
<path transform="translate(726,803)" d="m0 0 3 2-4 13-6 2-7-1-3-8-3-6 2-1 1 2 9 3 6-4z" fill="#4B4B4B"/>
<path transform="translate(1691,582)" d="m0 0 4 5 8 5 7 4v4l-7 1-4 2h-3-2v-5h-2l-1-7 2-4-4-1z" fill="#7B7B7C"/>
<path transform="translate(990,903)" d="m0 0h1l1 25 1 72-1 5h-1v-9h-6l-4-2v-2l-4 1h-7v-1l13-2h7z" fill="#656566"/>
<path transform="translate(1056,956)" d="m0 0 4 1-6 1-1 3-4 3-2-1h-6l1 9-4 9-1 36h-1v-52l1-4 15-4z" fill="#717171"/>
<path transform="translate(1235,893)" d="m0 0 3 1h-2v3l-10 3-2-1v2l-11 3-3 2-7 2-7 3-5 2-9 4-16 5-4-1 24-9 27-11z" fill="#838384"/>
<path transform="translate(946,999)" d="m0 0 2 1-4 9-4 18-4 9-1 5v11l3 9v3l4 1v2l-4 2-3-1 4-2h-5l-1-2-1-14 1-15 6-16 5-17z" fill="#919292"/>
<path transform="translate(1389,1297)" d="m0 0 4 5 4 3 16 5 2 1 1 5-6 9-4-1 1-8-2-5-10-4-6-6z" fill="#7E7E7F"/>
<path transform="translate(530,1265)" d="m0 0h11l5 9v2h3l3 10 5 21 2 7h-3l-1-4-4-10-4-18-6-12-2-2-9-1z" fill="#656566"/>
<path transform="translate(1185,1225)" d="m0 0h54l11 1 1 2h-52l-2-1-12-1z" fill="#585859"/>
<path transform="translate(1523,447)" d="m0 0 15 1 2 1v5l-7 7-6 4-2-2h2l-1-3 2-6 3-2-1-2-7-2z" fill="#3F3F3F"/>
<path transform="translate(1370,1314)" d="m0 0 6 1 3 3-2 5-2 4-6 1-2-3v-10z" fill="#464646"/>
<path transform="translate(1523,486)" d="m0 0h3l1 12-1 1-8-1-4-3v-2l-1-3h7z" fill="#484848"/>
<path transform="translate(579,446)" d="m0 0h26l-2 4-13 1-3-1h-7l-3 1-2-1-1 2v-4z" fill="#585858"/>
<path transform="translate(1208,999)" d="m0 0 1 2-2 4v13l1 9-4 3-5-2 3-7 1-12 3-8z" fill="#7D7D7E"/>
<path transform="translate(1503,426)" d="m0 0 3 3 7 19-5-2-3-2-4-7v-6h2z" fill="#494949"/>
<path transform="translate(756,1164)" d="m0 0h8l5 3v5l-6 7-15 8-8 1 4-3 19-10 4-5v-2l-7-2-11 1 3-2z" fill="#5B5C5C"/>
<path transform="translate(1217,914)" d="m0 0h8l2 4-5 2h-3v2l-4 2h-4v-5z" fill="#464646"/>
<path transform="translate(533,1311)" d="m0 0 1 3-10 6h11l-4 2-15 4-4 2-3-1 10-5h-2-5l16-8z" fill="#7A7A7B"/>
<path transform="translate(1040,1044)" d="m0 0 2 1-1 3-1 22-2 8h-1v-28l2-5z" fill="#6E6F6F"/>
<path transform="translate(891,1322)" d="m0 0 1 4-2 4-5 2-5-1-21-1-1 3h-5l-3 1-2 2 1-5 7-2 18-1 15 1z" fill="#5F6060"/>
<path transform="translate(1247,963)" d="m0 0 3 1-20 8-11 5-7 2v2h-2v2l-9 2-5 2-3-1 18-8 25-11z" fill="#858686"/>
<path transform="translate(492,883)" d="m0 0h1l1 8 19-5 11-1v31h-1v-30l-15 4-3 2h-12l-1-2z" fill="#5C5C5C"/>
<path transform="translate(1387,544)" d="m0 0h5l-1 11 1 7-5-2-2-4-1-7z" fill="#7D7D7E"/>
<path transform="translate(1178,838)" d="m0 0h5l-2 3-3 1-2 2h-4-2v2l-6 2-9-2 3-2z" fill="#7F7F80"/>
<path transform="translate(1288,1298)" d="m0 0 5 1 2 3-1 4-3 4h-4l-2-3 1-7z" fill="#292828"/>
<path transform="translate(531,1273)" d="m0 0h1l3 38-10 6-9 4-2-1 7-4 10-5z" fill="#6E6E6F"/>
<path transform="translate(1293,946)" d="m0 0 2 1-7 6-9 3-2 1-3-1v2l-11 2-8 1 3-2 27-9z" fill="#828283"/>
<path transform="translate(1361,1302)" d="m0 0v3l-6 3-9 2-3 2v4h-2l-2 4-2-5 1-5 7-3 15-4z" fill="#838384"/>
<path transform="translate(773,1244)" d="m0 0 2 1-4 4 14 1 21 5v1l-10-1-8-2h-10l-9-2-2-3z" fill="#59595A"/>
<path transform="translate(739,1410)" d="m0 0v3l-4 1v2l-12 3-2 4-4-7 3-2 16-2z" fill="#595959"/>
<path transform="translate(1328,996)" d="m0 0 1 3 3 7-2 5-6 1-1-5 2-7z" fill="#919292"/>
<path transform="translate(1113,768)" d="m0 0h13l5 4 13 7 3 3-1 2-7-5-7-2-5-4-8-3-6-1z" fill="#818282"/>
<path transform="translate(1465,1204)" d="m0 0 5 1 11 7-1 2h-3v3l-7-2-1-3v-2l-2-1v-4z" fill="#4B4B4B"/>
<path transform="translate(1467,1032)" d="m0 0 6 2-1 5-2 3h-5l-3-4 1-4z" fill="#FEFEFE"/>
<path transform="translate(633,445)" d="m0 0h26l3 2-3 3-21-2v-1l-5-1z" fill="#434343"/>
<path transform="translate(965,993)" d="m0 0h5l-4 2-13 4-6 7-2 9h-2l1-9 4-8 13-4z" fill="#808081"/>
<path transform="translate(1463,1206)" d="m0 0 4 5-6 4-5 7-3 2 1-7 7-9z" fill="#515151"/>
<path transform="translate(1268,716)" d="m0 0 2 3 2 7 2 3 2 7v7l-4-4-4-18z" fill="#545454"/>
<path transform="translate(560,1227)" d="m0 0 2 2v4l21-1-4 2-6 2h-12l-1-1z" fill="#5A5B5B"/>
<path transform="translate(1297,667)" d="m0 0 3 3 20 4 7 2-4 2-8-1-4-2v-1l-12-2-2-2z" fill="#5C5C5C"/>
<path transform="translate(983,990)" d="m0 0h8v6h-6l-4-2v-2l-4 1h-7v-1z" fill="#808081"/>
<path transform="translate(1221,422)" d="m0 0h17l-3 5h-7l-7-3z" fill="#666"/>
<path transform="translate(933,1052)" d="m0 0h2l3 9v3l4 1v2l-4 2-3-1 4-2h-5l-1-2-1-11z" fill="#8B8B8C"/>
<path transform="translate(1235,893)" d="m0 0 3 1h-2v3l-10 3-2-1v2l-2 1h-6v-2z" fill="#828383"/>
<path transform="translate(696,792)" d="m0 0h3l3 4-1 5 5 1 1 3-4-1-5-3-3-5z" fill="#252424"/>
<path transform="translate(1233,681)" d="m0 0 2 1-2 5-1-2-2 7-3 1-3-2 1-4z" fill="#535353"/>
<path transform="translate(1228,590)" d="m0 0h4l3 8-1 5-2 2-2-2v-8z" fill="#4F4F4F"/>
<path transform="translate(969,802)" d="m0 0h3v2l-5 2-8 2-3 1-6-2 4-2z" fill="#737373"/>
<path transform="translate(530,1265)" d="m0 0h11l8 16-1 4-5-12-4-5-9-1z" fill="#8B8C8C"/>
<path transform="translate(996,819)" d="m0 0h2v2l3-1 5 5-2 2-10-4-1-3z" fill="#5C5D5D"/>
<path transform="translate(602,1373)" d="m0 0h7l-2 2-9 3-3 2h-5l5-5z" fill="#696969"/>
<path transform="translate(1109,825)" d="m0 0h10l-2 2-17 5-3-1 9-2v-3z" fill="#818182"/>
<path transform="translate(733,1245)" d="m0 0h7l10 4 1 3h-2l-1 2-7-6-7-1-3-1z" fill="#565656"/>
<path transform="translate(1497,422)" d="m0 0 4 1-4 2 1 4-2 4h-4v2l-2-1 5-10z" fill="#4B4B4B"/>
<path transform="translate(1015,1400)" d="m0 0 7 1-4 3-4 1-1 5-2-3 1-5z" fill="#676767"/>
<path transform="translate(773,1244)" d="m0 0 2 1-4 4 14 1v1l-14 1-4-4z" fill="#676868"/>
<path transform="translate(1267,661)" d="m0 0h1v7l-2 4-8 4h-10l4-2 13-4z" fill="#636464"/>
<path transform="translate(1389,1297)" d="m0 0 4 5 4 3 10 3-2 2-6-1-6-4-4-4z" fill="#838384"/>
<path transform="translate(769,1410)" d="m0 0h10l4 2-1 4v-2h-7l-2-2z" fill="#565656"/>
<path transform="translate(532,1309)" d="m0 0h3v2l-10 6-9 4-2-1 7-4 10-5z" fill="#505050"/>
<path transform="translate(1523,447)" d="m0 0 15 1 2 1v5l-5-1v-4h-11z" fill="#3D3D3D"/>
<path transform="translate(1351,987)" d="m0 0 3 1-1 3-8 1-2-1v-3z" fill="#686868"/>
<path transform="translate(1293,946)" d="m0 0 2 1-7 6-5 1-4-2 12-5z" fill="#878788"/>
<path transform="translate(1300,943)" d="m0 0 3 1-4 4-6 3-3-1 5-5z" fill="#808081"/>
<path transform="translate(914,745)" d="m0 0 2 1-4 6h-2l-1 4h-4l2-4z" fill="#6B6B6B"/>
<path transform="translate(1240,1009)" d="m0 0 6 1-4 3-3 2-4-1 1-3z" fill="#787879"/>
<path transform="translate(976,813)" d="m0 0 9 1 3 4-4-1v2l-7-2z" fill="#5F5F5F"/>
<path transform="translate(942,1329)" d="m0 0h15l5 1v1l-8 1-4-1v1h-6z" fill="#595A5A"/>
<path transform="translate(477,540)" d="m0 0 4 1 2 2v4l-4-1-3-5zm-2 2m-1 1 1 2-2-1z" fill="#515151"/>
<path transform="translate(851,1330)" d="m0 0h8l-1 3h-5l-3 1-2 2 1-5z" fill="#4E4E4E"/>
<path transform="translate(595,1482)" d="m0 0h9l-4 2h-7v6l-3-3 1-4z" fill="#646464"/>
<path transform="translate(1294,1012)" d="m0 0 4 1 4 9-1 3-3-7-3-2z" fill="#636363"/>
<path transform="translate(1213,901)" d="m0 0 3 1-6 4-10 1 3-2z" fill="#878888"/>
<path transform="translate(983,990)" d="m0 0h8v5h-5l-1-4z" fill="#919292"/>
<path transform="translate(1230,460)" d="m0 0 2 3v5l-3 1-4-2 4-1v-5z" fill="#383838"/>
<path transform="translate(1361,1302)" d="m0 0v3l-6 3h-7v-2l12-3z" fill="#858586"/>
<path transform="translate(685,1013)" d="m0 0h1l1 6v11l-2-3-1-5z" fill="#585859"/>
<path transform="translate(937,552)" d="m0 0 2 3v9h-3l-1-4 1-7z" fill="#606060"/>
<path transform="translate(496,557)" d="m0 0h5v3l-3 3h-3z" fill="#1F1E1E"/>
<path transform="translate(750,1182)" d="m0 0 2 1-4 4-8 1 4-3z" fill="#5B5B5B"/>
<path transform="translate(1281,846)" d="m0 0h7l-2 2-11 4-3-1 9-3z" fill="#919292"/>
<path transform="translate(914,826)" d="m0 0h15l-4 3h-8z" fill="#525252"/>
<path transform="translate(1113,768)" d="m0 0h13l2 3-9-1-6-1z" fill="#8D8E8E"/>
</svg>
